<svg width="400" height="500" xmlns="http://www.w3.org/2000/svg">
    <!-- Objekte -->
    <rect x="40" y="20" width="120" height="50" fill="#50A050" stroke="#408040" rx="10"/>
    <text x="100" y="50" font-size="16" text-anchor="middle" font-family="Arial">Object</text>

    <rect x="240" y="20" width="120" height="50" fill="#50A050" stroke="#408040" rx="10"/>
    <text x="300" y="50" font-size="16" text-anchor="middle" font-family="Arial">Object</text>

    <!-- Pfeile zu Service -->
    <line x1="100" y1="70" x2="100" y2="110" stroke="#408040" marker-end="url(#arrow)"/>
    <line x1="300" y1="70" x2="300" y2="110" stroke="#408040" marker-end="url(#arrow)"/>

    <!-- Service -->
    <rect x="100" y="110" width="200" height="50" fill="#50A050" stroke="#408040" rx="10"/>
    <text x="200" y="140" font-size="16" text-anchor="middle" font-family="Arial">Service</text>

    <!-- Pfeil zu Transactional -->
    <line x1="200" y1="160" x2="200" y2="210" stroke="#408040" marker-end="url(#arrow)"/>

    <!-- @Transactional -->
    <rect x="80" y="210" width="240" height="50" fill="#50A050" stroke="#408040" rx="10"/>
    <text x="200" y="240" font-size="16" text-anchor="middle" font-family="Arial">@Transactional</text>

    <!-- Pfeil zu Datenbank -->
    <line x1="200" y1="260" x2="200" y2="310" stroke="#408040" marker-end="url(#arrow)"/>

    <!-- Datenbank Symbol -->
    <ellipse cx="200" cy="320" rx="60" ry="15" fill="#50A050" stroke="#408040"/>
    <rect x="140" y="320" width="120" height="60" rx="10" fill="#50A050" stroke="#408040"/>
    <line x1="140" y1="340" x2="260" y2="340" stroke="#408040"/>
    <line x1="140" y1="360" x2="260" y2="360" stroke="#408040"/>
    <text x="200" y="400" font-size="16" text-anchor="middle" fill="#408040" font-family="Arial">Database</text>

    <!-- Marker für Pfeilspitzen -->
    <defs>
        <marker id="arrow" markerWidth="10" markerHeight="10" refX="5" refY="3" orient="auto" markerUnits="strokeWidth">
            <path d="M0,0 L0,6 L9,3 z" fill="#50A050"/>
        </marker>
    </defs>
</svg>
